<?xml version="1.0" standalone="no"?>
<!DOCTYPE svg PUBLIC "-//W3C//DTD SVG 20010904//EN"
 "http://www.w3.org/TR/2001/REC-SVG-20010904/DTD/svg10.dtd">
<svg version="1.0" xmlns="http://www.w3.org/2000/svg"
 width="96.000000pt" height="96.000000pt" viewBox="0 0 96.000000 96.000000"
 preserveAspectRatio="xMidYMid meet">
<metadata>
Created by potrace 1.11, written by Peter Selinger 2001-2013
</metadata>
<g transform="translate(0.000000,96.000000) scale(0.100000,-0.100000)"
fill="#000000" stroke="none">
<path d="M270 856 c-113 -57 -220 -110 -238 -120 l-32 -17 20 -39 20 -40 220
110 220 110 220 -110 220 -110 20 40 c19 37 19 40 3 49 -49 26 -463 231 -465
230 -2 0 -95 -47 -208 -103z"/>
<path d="M396 624 c-72 -23 -139 -94 -165 -175 -29 -94 -24 -217 12 -290 50
-102 124 -151 236 -155 136 -5 227 54 262 173 8 26 5 29 -37 38 -83 19 -82 19
-88 -13 -22 -99 -183 -124 -240 -36 -24 35 -29 58 -32 146 -3 86 8 134 41 172
61 71 199 56 227 -25 11 -33 7 -33 100 -8 l38 10 -15 37 c-23 57 -95 118 -156
131 -67 15 -124 13 -183 -5z"/>
</g>
</svg>
